<?xml version="1.0" encoding="UTF-8" standalone="no"?>
<!-- Created with Inkscape (http://www.inkscape.org/) -->

<svg
   xmlns:dc="http://purl.org/dc/elements/1.1/"
   xmlns:cc="http://creativecommons.org/ns#"
   xmlns:rdf="http://www.w3.org/1999/02/22-rdf-syntax-ns#"
   xmlns:svg="http://www.w3.org/2000/svg"
   xmlns="http://www.w3.org/2000/svg"
   xmlns:sodipodi="http://sodipodi.sourceforge.net/DTD/sodipodi-0.dtd"
   xmlns:inkscape="http://www.inkscape.org/namespaces/inkscape"
   width="1000"
   height="366.69901"
   viewBox="0 0 264.58333 97.022448"
   version="1.1"
   id="svg7448"
   inkscape:version="0.92.3 (2405546, 2018-03-11)"
   sodipodi:docname="Pokémon.svg">
  <defs
     id="defs7442">
    <linearGradient
       gradientTransform="translate(-408,-677.5)"
       y2="714.04132"
       x2="416.7337"
       y1="732.71002"
       x1="426.75101"
       gradientUnits="userSpaceOnUse"
       id="SVGID_1_">
      <stop
         id="stop12"
         style="stop-color:#0070B6"
         offset="0" />
      <stop
         id="stop14"
         style="stop-color:#1D2C5E"
         offset="1" />
    </linearGradient>
    <linearGradient
       gradientTransform="translate(-408,-677.5)"
       y2="680.94922"
       x2="561.64203"
       y1="694.57318"
       x1="548.92682"
       gradientUnits="userSpaceOnUse"
       id="SVGID_2_">
      <stop
         id="stop21"
         style="stop-color:#0070B6"
         offset="0" />
      <stop
         id="stop23"
         style="stop-color:#1D2C5E"
         offset="1" />
    </linearGradient>
    <linearGradient
       gradientTransform="translate(-408,-677.5)"
       y2="704.54773"
       x2="491.9368"
       y1="717.28607"
       x1="493.45309"
       gradientUnits="userSpaceOnUse"
       id="SVGID_3_">
      <stop
         id="stop32"
         style="stop-color:#0070B6"
         offset="0" />
      <stop
         id="stop34"
         style="stop-color:#1D2C5E"
         offset="1" />
    </linearGradient>
    <linearGradient
       gradientTransform="translate(-408,-677.5)"
       y2="703.336"
       x2="631.74219"
       y1="714.83398"
       x1="632.34772"
       gradientUnits="userSpaceOnUse"
       id="SVGID_4_">
      <stop
         id="stop39"
         style="stop-color:#125D9E"
         offset="0" />
      <stop
         id="stop41"
         style="stop-color:#1D2C5E"
         offset="1" />
    </linearGradient>
    <linearGradient
       gradientTransform="translate(-408,-677.5)"
       y2="719.48871"
       x2="576.56763"
       y1="698.26068"
       x1="589.91107"
       gradientUnits="userSpaceOnUse"
       id="SVGID_5_">
      <stop
         id="stop52"
         style="stop-color:#125D9E"
         offset="0" />
      <stop
         id="stop54"
         style="stop-color:#1D2C5E"
         offset="1" />
    </linearGradient>
    <linearGradient
       gradientTransform="matrix(0.98186927,0,0,0.98186927,-405.95483,-466.8943)"
       y2="750.20251"
       x2="480.91931"
       y1="732.30957"
       x1="471.82129"
       gradientUnits="userSpaceOnUse"
       id="SVGID_6_">
      <stop
         id="stop65"
         style="stop-color:#105FA1"
         offset="0" />
      <stop
         id="stop67"
         style="stop-color:#1D2C5E"
         offset="1" />
    </linearGradient>
    <linearGradient
       gradientTransform="translate(-408,-677.5)"
       y2="750.61151"
       x2="448.0217"
       y1="726.20209"
       x1="437.49219"
       gradientUnits="userSpaceOnUse"
       id="SVGID_7_">
      <stop
         id="stop74"
         style="stop-color:#105FA1"
         offset="0" />
      <stop
         id="stop76"
         style="stop-color:#1D2C5E"
         offset="1" />
    </linearGradient>
    <linearGradient
       gradientTransform="matrix(0.98186927,0,0,-0.98186927,-559.12644,-709.90694)"
       y2="-982.76947"
       x2="655.63483"
       y1="-982.76947"
       x1="639.70612"
       gradientUnits="userSpaceOnUse"
       id="SVGID_8_">
      <stop
         id="stop177"
         style="stop-color:#3C5AA6"
         offset="0" />
      <stop
         id="stop179"
         style="stop-color:#2B73B9"
         offset="0.9331" />
      <stop
         id="stop181"
         style="stop-color:#2A75BB"
         offset="1" />
    </linearGradient>
    <linearGradient
       gradientTransform="matrix(1,0,0,-1,-564,-925)"
       y2="-974.57031"
       x2="838.9209"
       y1="-974.57031"
       x1="573.17767"
       gradientUnits="userSpaceOnUse"
       id="SVGID_9_">
      <stop
         id="stop190"
         style="stop-color:#3C5AA6"
         offset="0" />
      <stop
         id="stop192"
         style="stop-color:#2B73B9"
         offset="0.9331" />
      <stop
         id="stop194"
         style="stop-color:#2A75BB"
         offset="1" />
    </linearGradient>
    <linearGradient
       gradientTransform="matrix(0.98186928,0,0,0.98186928,-405.95482,-666.87185)"
       y2="750.20251"
       x2="480.91931"
       y1="732.30957"
       x1="471.82129"
       gradientUnits="userSpaceOnUse"
       id="SVGID_6_-7">
      <stop
         id="stop65-2"
         style="stop-color:#105FA1"
         offset="0" />
      <stop
         id="stop67-9"
         style="stop-color:#1D2C5E"
         offset="1" />
    </linearGradient>
    <linearGradient
       gradientTransform="matrix(0.98186928,0,0,-0.98186928,-559.12646,-909.88454)"
       y2="-982.76947"
       x2="655.63483"
       y1="-982.76947"
       x1="639.70612"
       gradientUnits="userSpaceOnUse"
       id="SVGID_8_-7">
      <stop
         id="stop177-2"
         style="stop-color:#3C5AA6"
         offset="0" />
      <stop
         id="stop179-1"
         style="stop-color:#2B73B9"
         offset="0.9331" />
      <stop
         id="stop181-9"
         style="stop-color:#2A75BB"
         offset="1" />
    </linearGradient>
  </defs>
  <sodipodi:namedview
     id="base"
     pagecolor="#ffffff"
     bordercolor="#666666"
     borderopacity="1.0"
     inkscape:pageopacity="0.0"
     inkscape:pageshadow="2"
     inkscape:zoom="0.7"
     inkscape:cx="487.48191"
     inkscape:cy="272.7484"
     inkscape:document-units="px"
     inkscape:current-layer="svg7448"
     showgrid="false"
     units="px"
     inkscape:window-width="1360"
     inkscape:window-height="706"
     inkscape:window-x="-8"
     inkscape:window-y="-8"
     inkscape:window-maximized="1" />
  <metadata
     id="metadata7445">
    <rdf:RDF>
      <cc:Work
         rdf:about="">
        <dc:format>image/svg+xml</dc:format>
        <dc:type
           rdf:resource="http://purl.org/dc/dcmitype/StillImage" />
        <dc:title />
      </cc:Work>
    </rdf:RDF>
  </metadata>
  <polygon
     transform="matrix(0.98186929,0,0,0.98186929,-5.3521695,-1.6554177)"
     style="fill:url(#SVGID_1_)"
     id="polygon16"
     points="5.451,38.243 17.477,58.544 22.278,53.965 9.189,34.446 " />
  <polygon
     transform="matrix(0.98186929,0,0,0.98186929,-5.3521695,-1.6554177)"
     style="fill:#0071b9"
     id="polygon18"
     points="184.009,22.288 183.544,24.964 189.296,23.108 188.579,19.83 " />
  <polygon
     transform="matrix(0.98186929,0,0,0.98186929,-5.3521695,-1.6554177)"
     style="fill:url(#SVGID_2_)"
     id="polygon25"
     points="150.495,4.012 131.987,25.236 137.373,23.687 154.994,1.686 " />
  <polygon
     transform="matrix(0.98186929,0,0,0.98186929,-5.3521695,-1.6554177)"
     style="fill:#1d2c5e"
     id="polygon27"
     points="249.507,33.031 254.05,30.61 252.752,41.986 " />
  <polygon
     transform="matrix(0.98186929,0,0,0.98186929,-5.3521695,-1.6554177)"
     style="fill:#1d2c5e"
     id="polygon29"
     points="221.271,40.326 225.309,41.153 230.463,38.651 225.99,36.982 " />
  <polygon
     transform="matrix(0.98186929,0,0,0.98186929,-5.3521695,-1.6554177)"
     style="fill:url(#SVGID_3_)"
     id="polygon36"
     points="82.049,28.247 82.695,41.43 88.331,39.153 86.644,25.782 " />
  <polygon
     transform="matrix(0.98186929,0,0,0.98186929,-5.3521695,-1.6554177)"
     style="fill:url(#SVGID_4_)"
     id="polygon43"
     points="227.27,31.42 225.641,24.313 221.105,26.761 221.271,40.326 225.837,37.986 " />
  <polygon
     transform="matrix(0.98186929,0,0,0.98186929,-5.3521695,-1.6554177)"
     style="fill:#312370"
     id="polygon45"
     points="225.018,41.191 220.023,85.561 228.008,83.986 229.572,38.798 " />
  <polygon
     transform="matrix(0.98186929,0,0,0.98186929,-5.3521695,-1.6554177)"
     style="fill:#21386e"
     id="polygon47"
     points="254.828,96.172 239.788,84.52 224.553,83.182 220.023,85.561 234.796,87.688 234.938,93.705 250.266,98.59 " />
  <polygon
     transform="matrix(0.98186929,0,0,0.98186929,-5.3521695,-1.6554177)"
     style="fill:#21386e"
     id="polygon49"
     points="188.359,83.409 210.643,87.361 215.096,84.912 184.368,66.189 162.57,69.925 158.318,73.966 177.934,77.105 181.701,75.076 184.102,79.512 187.652,77.561 " />
  <polygon
     transform="matrix(0.98186929,0,0,0.98186929,-5.3521695,-1.6554177)"
     style="fill:url(#SVGID_5_)"
     id="polygon56"
     points="170.568,44.11 170.838,22.514 166.377,24.969 158.318,73.966 162.832,71.621 " />
  <polygon
     transform="matrix(0.98186929,0,0,0.98186929,-5.3521695,-1.6554177)"
     style="fill:#1d2c5e"
     id="polygon58"
     points="135.24,29.081 131.686,30.974 131.985,32.159 140.443,26.786 136.747,22.82 131.987,25.236 " />
  <polygon
     transform="matrix(0.98186929,0,0,0.98186929,-5.3521695,-1.6554177)"
     style="fill:#21386e"
     id="polygon60"
     points="144.957,86.958 108.617,68.957 113.179,65.508 149.479,84.516 " />
  <polygon
     transform="matrix(0.98186929,0,0,0.98186929,-5.3521695,-1.6554177)"
     style="fill:#1d2c5e"
     id="polygon62"
     points="112.032,19.963 106.525,30.406 112.344,28.644 116.543,17.516 " />
  <path
     style="fill:url(#SVGID_6_-7);stroke-width:0.26458332"
     id="path69"
     d="m 55.606202,60.30544 -4.561772,3.131182 c 0,0 0.968129,5.090009 2.216082,8.630629 1.254828,3.553389 4.241678,6.407679 4.241678,6.407679 1.918571,1.87537 4.27015,3.24017 6.893706,4.00603 5.045823,1.45219 10.740665,0.505661 15.629392,-2.611768 C 81.303681,79.06013 83.038644,77.76504 84.104954,76.74292 79.29969,79.65907 55.606202,60.30544 55.606202,60.30544 Z"
     inkscape:connector-curvature="0" />
  <polygon
     transform="matrix(0.98186929,0,0,0.98186929,-5.3521695,-1.6554177)"
     style="fill:#1d2c5e"
     id="polygon71"
     points="113.146,82.139 91.647,37.551 87.224,39.041 82.695,41.43 86.947,40.355 91.187,87.131 108.511,84.568 " />
  <polygon
     transform="matrix(0.98186929,0,0,0.98186929,-5.3521695,-1.6554177)"
     style="fill:url(#SVGID_7_)"
     id="polygon78"
     points="64.236,91.55 26.068,51.615 21.292,54.477 17.477,58.544 22.001,56.602 41.357,100.5 59.746,94.568 " />
  <path
     style="fill:#1d2c5e;stroke-width:0.26458332"
     id="path80"
     d="m 204.6029,74.255842 0.25529,2.115929 c 1.55528,-0.174771 3.18911,-0.376061 4.58729,-0.873861 1.6299,-0.55771 5.17053,-2.13459 6.51667,-3.296139 -0.50468,0.18361 -8.8005,2.3339 -11.35925,2.054071"
     inkscape:connector-curvature="0" />
  <path
     style="fill:#1d2c5e;stroke-width:0.26458332"
     id="path82"
     d="m 140.72347,63.25007 0.67749,3.407092 c 3.65452,-0.543962 6.79159,-1.896001 9.87564,-3.749762 1.93526,-1.152718 4.06003,-2.89161 4.73065,-3.355049 -0.47327,0.302419 -15.28378,3.697719 -15.28378,3.697719 z"
     inkscape:connector-curvature="0" />
  <g
     transform="matrix(0.98186929,0,0,0.98186929,-5.3521695,-1.6554177)"
     id="g84">
    <path
       style="fill:#ffcb05"
       id="path86"
       d="M 46.389,96.338 44.952,93.145 26.6,52.186 l -0.377,-0.84 -0.834,0.385 -0.557,0.256 -3.267,1.604 C 21.083,52.783 20.283,51.429 19.727,50.49 L 12.34,38.006 10.408,34.747 13.604,32.722 c 3.023,-1.928 6.437,-3.709 10.151,-5.295 7.395,-3.15 14.943,-4.816 21.826,-4.816 2.264,0 4.455,0.183 6.513,0.541 3.431,0.391 6.604,1.517 9.225,3.263 3.906,2.184 6.981,5.572 8.718,9.58 1.426,3.294 1.704,7.152 0.798,11.154 l -0.532,2.351 1.953,-1.416 c 1.316,-0.955 2.746,-1.771 4.25,-2.426 2.6,-1.099 5.29,-1.66 7.985,-1.66 2.551,0 4.963,0.505 7.17,1.498 l 1.423,0.638 -0.143,-1.553 -0.619,-6.711 -0.1,-1.064 -1.036,0.269 -3.109,0.806 -0.545,-11.427 22.774,-7.276 -0.184,8.881 1.715,0.44 4.974,-9.532 14.897,13.212 0.621,0.553 0.606,-0.57 c 2.041,-1.918 4.46,-3.457 7.189,-4.574 l 1.14,-0.466 -0.781,-0.953 -2.686,-3.274 17.103,-19.714 8.957,13.365 -13.711,7.37 -3.045,1.638 3.457,0.073 c 6.5,0.137 12.256,2.887 16.205,7.742 l 1.428,1.761 0.92,1.131 -1.528,1.622 -1.019,1.082 -3.426,3.654 -0.637,0.679 0.689,0.622 3.211,2.891 1.242,1.117 0.266,-1.648 1.232,-7.627 0.315,-1.958 0.01,0.011 0.324,-2 1.839,-11.26 h 16.418 0.77 l 0.13,-0.759 0.321,-1.928 h 14.785 l 3.582,22.621 0.233,1.465 1.2,-0.871 c 1.451,-1.054 3.054,-1.921 4.766,-2.576 2.279,-0.86 4.625,-1.299 6.967,-1.299 2.788,0 5.495,0.644 7.836,1.861 0.062,0.045 0.15,0.103 0.27,0.151 l 1.111,0.446 0.131,-1.192 0.268,-2.465 0.088,-0.808 -0.795,-0.177 -2.998,-0.67 -0.146,-11.792 22.857,5.031 1.717,8.485 1.775,0.035 1.771,-7.302 19.06,4.635 -19.478,58.703 -13.938,-4.377 -0.099,-5.407 -0.014,-0.775 -0.769,-0.108 -13.908,-1.963 0.787,-7.069 0.187,-1.682 -1.505,0.771 c -0.713,0.363 -1.403,0.668 -2.055,0.908 -2.274,0.86 -4.603,1.295 -6.922,1.295 -0.671,0 -1.345,-0.037 -2.001,-0.111 l -1.188,-0.133 0.186,1.18 0.979,6.217 -20.291,-3.579 -1.063,-9.226 -0.342,-2.957 -1.367,2.643 -2.336,4.505 -4.301,-7.94 -1.293,-2.385 -0.408,2.68 -0.937,6.146 -17.784,-2.799 1.379,-8.435 0.315,-1.934 -1.681,1.005 c -2.911,1.745 -6.254,3.058 -10.217,4.015 -1.385,0.338 -2.832,0.572 -4.305,0.694 l -0.834,0.07 v 0.837 15.918 l -35.023,-17.309 -1.316,-0.649 0.001,1.467 0.024,14.804 -15.659,2.307 -0.658,-7.109 -0.178,-1.902 -1.365,1.338 c -2.069,2.025 -4.4,3.595 -6.927,4.667 -2.585,1.099 -5.252,1.655 -7.925,1.655 -2.669,0 -5.177,-0.558 -7.455,-1.649 -4.22,-2.03 -7.264,-5.713 -8.57,-10.36 C 62.87,68.121 62.701,65.816 62.99,63.45 l 0.309,-2.52 -1.838,1.75 c -1.296,1.23 -2.692,2.405 -4.152,3.484 l -0.495,0.365 0.156,0.595 5.275,20.248 0.932,3.593 -3.532,1.123 -9.932,3.18 z m 4.458,-54.356 c -0.512,0 -1.041,0.047 -1.574,0.143 l -0.676,0.13 -0.998,0.192 0.301,0.972 0.196,0.632 2.84,9.293 0.284,0.893 0.422,1.34 1.05,-0.934 0.697,-0.621 c 2.753,-2.474 3.718,-4.986 3.137,-8.154 -0.366,-1.901 -1.838,-2.848 -2.684,-3.244 -0.884,-0.426 -1.896,-0.642 -2.995,-0.642 z m 76.135,0.305 -1.775,1.728 -4.675,4.543 -1.018,0.989 1.325,0.512 5.014,1.935 1.54,0.593 -0.318,-1.618 c -0.414,-2.09 -0.522,-4.182 -0.328,-6.217 z m 20.416,-5.167 c -1.939,0 -3.815,0.834 -5.148,2.286 -2.022,2.208 -2.415,5.465 -0.977,8.103 l 0.381,0.715 0.613,1.143 0.863,-0.966 0.555,-0.615 6.858,-7.83 0.539,-0.62 0.865,-0.994 -1.234,-0.457 -0.769,-0.284 c -0.807,-0.316 -1.671,-0.481 -2.546,-0.481 z"
       inkscape:connector-curvature="0" />
  </g>
  <path
     style="fill:#7d7f68;stroke-width:0.26458332"
     id="path88"
     d="m 149.67419,46.17929 c -0.0648,0.057 -0.1247,0.129601 -0.17576,0.204232 0.0677,-0.0619 0.13354,-0.115861 0.20325,-0.172812 z"
     inkscape:connector-curvature="0" />
  <polygon
     transform="matrix(0.98186929,0,0,0.98186929,-5.3521695,-1.6554177)"
     style="fill:#7d7f68"
     id="polygon90"
     points="164.837,48.294 165.418,44.702 167.014,46.131 163.802,43.241 167.227,39.587 166.055,40.831 166.089,40.674 165.053,41.767 161.631,45.41 " />
  <polygon
     transform="matrix(0.98186929,0,0,0.98186929,-5.3521695,-1.6554177)"
     style="fill:#7d7f68"
     id="polygon92"
     points="163.802,43.241 167.014,46.131 168.244,38.505 167.227,39.587 " />
  <path
     style="fill:#7d7f68;stroke-width:0.26458332"
     id="path94"
     d="m 113.617,46.660401 0.0511,0.02159 z"
     inkscape:connector-curvature="0" />
  <path
     style="fill:#c7a008;stroke-width:0.26458332"
     id="path96"
     d="m 132.23521,49.774891 c 0.26903,0.271981 0.0206,0.0766 0.32205,0.282781 l 2.05702,-1.450221 c -0.30536,-0.216011 -0.60778,-0.447731 -0.88565,-0.70694 -2.98488,-2.719779 -2.2092,-8.83683 -0.27296,-12.184999 -5.09688,4.112069 -4.83178,10.442178 -1.22046,14.059379"
     inkscape:connector-curvature="0" />
  <path
     style="fill:#c7a008;stroke-width:0.26458332"
     id="path98"
     d="m 157.06668,53.19966 c -3.39726,2.8101 -7.26976,4.642271 -12.38628,5.878441 -1.11835,0.25627 -2.21411,0.442831 -3.28632,0.537091 -8.12103,0.798258 -14.93423,-2.930882 -17.51949,-8.979202 -0.32205,-0.73247 -0.57046,-1.473779 -0.758,-2.265169 -1.19592,-5.093941 -0.17477,-9.64588 2.34176,-13.21399 0.24939,-0.34562 0.51155,-0.676511 0.78647,-1.013291 -0.12862,0.109961 -0.26019,0.204232 -0.36721,0.307321 -0.96715,0.8611 -1.82334,1.804681 -2.5509,2.835641 -2.51948,3.56811 -3.54062,8.122999 -2.33391,13.20909 0.1846,0.791379 0.42908,1.543489 0.74426,2.25928 2.58625,6.062059 9.4014,9.789228 17.51557,8.99687 1.08104,-0.104082 2.17288,-0.282781 3.29221,-0.552802 5.12241,-1.23617 8.99195,-3.06048 12.38922,-5.870588 0.82968,-0.6824 1.62991,-1.42666 2.40657,-2.240632 l -0.0717,-0.0687 c -0.0776,0.0668 -0.1355,0.124701 -0.20227,0.180671"
     inkscape:connector-curvature="0" />
  <polygon
     transform="matrix(0.98186929,0,0,0.98186929,-5.3521695,-1.6554177)"
     style="fill:#c7a008"
     id="polygon100"
     points="107.129,40.185 116.37,27.199 115.995,26.853 107.079,39.377 " />
  <polygon
     transform="matrix(0.98186929,0,0,0.98186929,-5.3521695,-1.6554177)"
     style="fill:#c7a008"
     id="polygon102"
     points="166.089,40.674 166.055,40.831 167.227,39.587 168.244,38.505 167.014,46.131 165.418,44.702 164.837,48.294 161.631,45.41 165.053,41.767 " />
  <polygon
     transform="matrix(0.98186929,0,0,0.98186929,-5.3521695,-1.6554177)"
     style="fill:#c7a008"
     id="polygon104"
     points="156.825,17.115 160.061,15.727 154.146,8.136 152.208,10.843 " />
  <path
     style="fill:#c7a008;stroke-width:0.26458332"
     id="path106"
     d="M 60.664792,33.61431 C 45.999591,15.749202 19.574541,25.351882 10.076921,33.70861 l 0.37115,0.641162 c 2.18367,-1.25287 4.48616,-2.38594 6.90843,-3.40218 9.4338,-4.02959 18.42772,-5.21078 25.638569,-3.94908 2.54893,0.2926 5.249071,1.04864 7.59869,2.6216 3.252931,1.82136 5.7184,4.41252 7.159789,7.7332 2.557773,5.881388 0.304382,13.701979 -5.719389,20.249089 7.555481,-6.932981 12.725024,-13.56649 8.630632,-23.988049 z"
     inkscape:connector-curvature="0" />
  <path
     style="fill:#c7a008;stroke-width:0.26458332"
     id="path108"
     d="m 90.584309,54.427972 c -0.06873,-0.324011 -0.137461,-0.652941 -0.242522,-0.970081 -0.825752,-2.97016 -2.599989,-5.341369 -4.926037,-6.919241 -3.764483,-2.55678 -9.019452,-3.082078 -14.256739,-0.87091 -2.755128,1.191 -5.150887,3.02415 -7.044913,5.21372 1.456114,-1.25286 3.120377,-2.296589 4.918181,-3.074228 5.225511,-2.218042 10.480472,-1.69373 14.257724,0.860118 2.326048,1.579822 4.085559,3.95006 4.928987,6.91628 0.09328,0.31813 0.165933,0.65196 0.23859,0.986782 0.22387,1.129149 0.327946,2.271059 0.284742,3.44047 -0.108987,3.418869 -1.376579,6.861299 -3.484652,9.801018 -0.339728,0.46541 -0.69713,0.899391 -1.067292,1.32945 1.199843,-1.035868 2.271061,-2.18171 3.186165,-3.46501 2.11691,-2.921069 3.381558,-6.370368 3.49349,-9.809859 0.04713,-1.14781 -0.04811,-2.308381 -0.285724,-3.438509"
     inkscape:connector-curvature="0" />
  <path
     style="fill:#c7a008;stroke-width:0.26458332"
     id="path110"
     d="m 76.143959,50.067491 c -0.02061,0.0324 2.127711,-2.12869 2.103163,-2.12869 -2.687373,-0.102121 -3.823396,2.43209 -3.916678,2.631411 0.551813,-0.26707 1.160571,-0.440862 1.813515,-0.502721"
     inkscape:connector-curvature="0" />
  <path
     style="fill:#c7a008;stroke-width:0.26458332"
     id="path112"
     d="m 81.205497,53.165291 c 0.108984,0.36427 0.165936,0.72658 0.165936,1.123259 0,0.55966 -0.124698,1.096751 -0.351512,1.591612 0.430059,-0.224851 3.537675,-1.732021 2.332921,-4.92506 0.06481,0.0982 -2.224916,2.20037 -2.147345,2.210189"
     inkscape:connector-curvature="0" />
  <path
     style="fill:#c7a008;stroke-width:0.26458332"
     id="path114"
     d="m 68.981223,54.94247 c 0,-1.313738 2.249461,-4.50089 2.950517,-5.564248 -3.552405,2.258298 -5.082157,5.306018 -5.082157,7.706688 0,4.113051 3.614262,7.42097 7.935468,7.42097 2.044253,0 5.788121,-1.08104 8.2369,-5.043858 -1.2833,0.844399 -4.545071,2.865088 -6.25647,2.865088 -4.320225,-0.0011 -7.784258,-3.249009 -7.784258,-7.38464"
     inkscape:connector-curvature="0" />
  <polygon
     transform="matrix(0.98186929,0,0,0.98186929,-5.3521695,-1.6554177)"
     style="fill:#c7a008"
     id="polygon116"
     points="106.678,61.477 106.735,78.432 109.426,78.586 108.894,59.258 " />
  <polygon
     transform="matrix(0.98186929,0,0,0.98186929,-5.3521695,-1.6554177)"
     style="fill:#c7a008"
     id="polygon118"
     points="91.232,29.197 91.287,30.703 104.04,26.906 104.985,43.146 107.113,40.164 106.659,23.867 " />
  <polygon
     transform="matrix(0.98186929,0,0,0.98186929,-5.3521695,-1.6554177)"
     style="fill:#c7a008"
     id="polygon120"
     points="129.783,35.012 117.804,24.018 116.37,27.199 126.913,37.104 " />
  <path
     style="fill:#c7a008;stroke-width:0.26458332"
     id="path122"
     d="m 120.28979,52.838332 -13.80901,-4.56569 -2.01185,2.124758 13.75697,5.505341 c 1.56019,2.939719 3.92453,5.458209 6.90156,7.299219 2.88178,1.762451 6.17497,2.817961 9.66257,3.152781 v 6.794529 l 2.13262,1.06435 0.67455,-10.207509 z"
     inkscape:connector-curvature="0" />
  <path
     style="fill:#c7a008;stroke-width:0.26458332"
     id="path124"
     d="m 142.46432,50.91779 c 3.39138,-0.817898 5.34726,-2.58722 7.03117,-4.534268 -1.26367,1.036849 -7.59869,2.417358 -8.66303,2.77771 l -2.08648,2.221968 c 0.9534,0.0844 2.54795,-0.17281 3.71834,-0.46541"
     inkscape:connector-curvature="0" />
  <path
     style="fill:#c7a008;stroke-width:0.26458332"
     id="path126"
     d="m 136.29622,27.436392 c -6.25352,0.81888 -9.51235,6.068928 -10.0514,6.70813 2.30936,-1.95098 5.20391,-3.39923 8.46372,-4.17098 7.73811,-1.87144 14.56112,0.48799 18.77825,5.701708 l 2.60981,-2.209199 c -4.17687,-5.123399 -12.06423,-7.895209 -19.80038,-6.029659"
     inkscape:connector-curvature="0" />
  <path
     style="fill:#c7a008;stroke-width:0.26458332"
     id="path128"
     d="m 157.26993,53.018992 c 0.75408,-0.634291 2.09433,-1.275451 2.80716,-2.02265 l -8.37338,-7.48184 c -0.64116,0.76684 -1.22242,2.0305 -2.00497,2.695229 z"
     inkscape:connector-curvature="0" />
  <path
     style="fill:#c7a008;stroke-width:0.26458332"
     id="path130"
     d="m 200.24046,73.06876 c -8.78479,-7.22067 -8.25949,-22.703759 -3.94712,-27.61605 l -3.87053,-24.266898 -8.46567,1.09282 -0.37704,2.13753 h 6.40571 l 3.39236,22.01743 c -4.31629,4.92801 -6.40179,11.530089 -4.95942,17.57448 1.11639,4.670748 3.98541,8.450948 8.11515,10.637567 0.41533,0.227801 0.84441,0.426141 1.2833,0.613672 l 0.055,0.323041 2.51849,0.39765 c 0,-0.0011 0.26216,-2.701121 -0.15022,-2.911242 z"
     inkscape:connector-curvature="0" />
  <polygon
     transform="matrix(0.98186929,0,0,0.98186929,-5.3521695,-1.6554177)"
     style="fill:#c7a008"
     id="polygon132"
     points="175.001,26.9 174.63,29.078 184.464,29.078 187.361,44.959 189.543,42.755 187.249,25.99 " />
  <polygon
     transform="matrix(0.98186929,0,0,0.98186929,-5.3521695,-1.6554177)"
     style="fill:#c7a008"
     id="polygon134"
     points="191.836,57.73 188.661,65.932 189.447,68.066 193.988,55.575 " />
  <polygon
     transform="matrix(0.98186929,0,0,0.98186929,-5.3521695,-1.6554177)"
     style="fill:#c7a008"
     id="polygon136"
     points="182.407,52.564 180.221,54.747 177.878,69.561 180.122,70.418 " />
  <path
     style="fill:#c7a008;stroke-width:0.26458332"
     id="path138"
     d="m 217.11388,45.309351 c 1.26367,0.90234 2.34176,2.04425 3.15278,3.402179 0.64018,1.04176 1.12424,2.208221 1.43353,3.488582 1.05158,4.372268 -0.20619,9.100949 -2.98586,12.894889 -0.27984,0.38489 -0.58814,0.757021 -0.8827,1.122281 1.12915,-0.971071 14.8439,-11.087272 1.44433,-24.37392 -14.73786,-4.858292 -20.31684,4.757148 -20.83821,5.366888 1.55724,-1.32356 3.35406,-2.418339 5.30013,-3.162599 4.98789,-1.88912 9.89527,-1.23421 13.376,1.2617"
     inkscape:connector-curvature="0" />
  <path
     style="fill:#c7a008;stroke-width:0.26458332"
     id="path140"
     d="m 209.68407,46.267661 c 0.0413,0.0933 2.11593,-2.16208 2.15816,-2.16208 -2.62258,0.108011 -3.88231,1.37364 -3.75271,1.957851 -0.1571,0.226809 -0.28474,0.45166 -0.38489,0.700069 0.55966,-0.27885 1.59455,-0.4929 1.97944,-0.49584"
     inkscape:connector-curvature="0" />
  <path
     style="fill:#c7a008;stroke-width:0.26458332"
     id="path142"
     d="m 214.61502,49.56379 c 0.0943,0.35151 0.13943,0.719712 0.13157,1.115412 -0.0236,0.50664 -0.15513,0.971058 -0.34758,1.40407 0.39864,-0.179681 3.57695,-1.166461 2.36336,-4.663882 0.0314,0.0992 -2.18171,2.146371 -2.14735,2.1444"
     inkscape:connector-curvature="0" />
  <path
     style="fill:#c7a008;stroke-width:0.26458332"
     id="path144"
     d="m 207.65259,60.668731 c 2.96623,0.126669 6.24665,-1.69568 8.59921,-4.91622 -6.03653,1.238139 -12.38235,-8.814229 -11.7461,-9.798069 -2.28089,1.653469 -4.29961,4.842579 -4.3919,7.071418 -0.1571,4.132692 3.20776,7.470061 7.53879,7.642871"
     inkscape:connector-curvature="0" />
  <polygon
     transform="matrix(0.98186929,0,0,0.98186929,-5.3521695,-1.6554177)"
     style="fill:#c7a008"
     id="polygon146"
     points="250.629,90.15 252.07,91.114 269.658,38.329 256.495,35.287 256.33,38.379 266.948,40.735 " />
  <polygon
     transform="matrix(0.98186929,0,0,0.98186929,-5.3521695,-1.6554177)"
     style="fill:#c7a008"
     id="polygon148"
     points="229.742,29.629 229.857,32.577 243.852,35.388 249.24,60.941 251.421,58.743 246.288,32.927 " />
  <polygon
     transform="matrix(0.98186929,0,0,0.98186929,-5.3521695,-1.6554177)"
     style="fill:#c7a008"
     id="polygon150"
     points="240.512,58.748 236.659,80.54 238.878,81.259 242.703,56.602 " />
  <polygon
     transform="matrix(0.98186929,0,0,0.98186929,-5.3521695,-1.6554177)"
     style="fill:#c7a008"
     id="polygon152"
     points="58.896,88.536 52.35,64.803 49.954,66.479 56.021,89.216 " />
  <path
     style="fill:#c7a008;stroke-width:0.26458332"
     id="path154"
     d="m 50.8078,50.234411 c -1.482619,1.572961 -4.76894,4.62951 -6.641359,5.835251 l -1.13701,-3.650592 -2.49002,-8.004199 -1.582769,-5.418939 -1.544482,1.982399 1.57688,5.426789 2.49002,7.998312 1.132099,3.661389 c 2.563662,-1.651511 6.292803,-4.751271 8.196641,-7.83041"
     inkscape:connector-curvature="0" />
  <path
     style="fill:#7d7f68;stroke-width:0.26458332"
     id="path156"
     d="m 141.87815,36.455842 c -2.02854,-0.780592 -4.90149,-0.54592 -6.45285,1.151729 -0.36034,0.393729 -1.0614,1.39818 -1.2833,1.8469 1.50128,-1.193959 4.17491,-1.452189 5.92754,-0.819859 z"
     inkscape:connector-curvature="0" />
  <path
     style="fill:#7d7f68;stroke-width:0.26458332"
     id="path158"
     d="M 48.95305,43.68632 C 48.72526,42.48844 47.55193,41.537012 46.976552,41.272891 45.94755,40.776062 44.16742,40.698502 42.86743,40.935132 c 0.23368,0.807088 0.501732,1.753608 0.615629,2.141448 0.527262,0.0736 1.393272,0.23074 1.847882,0.437922 0.57046,0.274918 1.56804,0.922949 1.79976,2.12869 0.310268,1.60928 0.228779,3.113508 -0.441841,4.334949 1.839042,-1.80467 2.731561,-3.767431 2.26419,-6.291821"
     inkscape:connector-curvature="0" />
  <g
     transform="matrix(0.98186929,0,0,0.98186929,-5.3521695,-1.6554177)"
     id="g160">
    <g
       id="g162">
      <path
         style="fill:#3c5aa6"
         id="path164"
         d="M 58.588,46.145 C 57.689,41.321 51.381,38.662 45.127,42.073 l 1.612,5.521 2.536,8.159 1.157,3.716 c 4.692,-3.017 9.408,-6.642 8.156,-13.324 z m -6.212,7.418 c -0.683,-2.229 -2.181,-7.042 -2.181,-7.042 0.007,0.022 -0.295,-1.03 -0.653,-2.234 1.326,-0.237 2.6,-0.141 3.648,0.363 0.586,0.279 1.616,0.93 1.841,2.164 0.518,2.774 -0.417,4.754 -2.655,6.749 z"
         inkscape:connector-curvature="0" />
    </g>
  </g>
  <g
     transform="matrix(0.98186929,0,0,0.98186929,-5.3521695,-1.6554177)"
     id="g166">
    <g
       id="g168">
      <path
         style="fill:#3567b0"
         id="path170"
         d="m 153.223,38.491 c -3.496,-3.207 -8.93,-2.958 -12.119,0.535 -3.208,3.487 -2.956,8.924 0.545,12.118 0.285,0.275 0.593,0.5 0.903,0.721 l 11.277,-12.771 c -0.199,-0.208 -0.399,-0.415 -0.606,-0.603 z m -10.648,8.983 c -1.103,-2.025 -0.88,-4.596 0.769,-6.398 1.586,-1.728 4.016,-2.22 6.088,-1.421 z"
         inkscape:connector-curvature="0" />
    </g>
  </g>
  <polygon
     transform="matrix(0.98186929,0,0,0.98186929,-5.3521695,-1.6554177)"
     style="fill:#1e2d5f"
     id="polygon172"
     points="168.291,37.089 162.046,43.106 167.979,48.434 " />
  <path
     style="fill:#3466af;stroke-width:0.26458332"
     id="path174"
     d="m 216.74568,47.41939 c 0.0933,0.372131 0.14139,0.74033 0.12961,1.132091 -0.10212,2.34274 -2.30445,4.15135 -4.92997,4.028609 -2.62355,-0.0903 -4.6845,-2.081559 -4.5814,-4.418409 0.0884,-2.190549 2.04032,-3.92453 4.45081,-4.035481 -0.45755,-0.1031 -0.93572,-0.157099 -1.43451,-0.17477 -4.3919,-0.1895 -7.98161,2.921061 -8.13282,6.79355 -0.16888,4.141531 3.15082,7.51817 7.473,7.705712 4.3978,0.17576 7.98555,-2.945612 8.16032,-7.067492 0.0511,-1.42862 -0.37115,-2.798329 -1.13504,-3.96381"
     inkscape:connector-curvature="0" />
  <path
     style="fill:url(#SVGID_8_-7);stroke-width:0.26458332"
     id="path183"
     d="m 83.510922,52.14905 c 0,2.352561 -2.139489,4.237752 -4.760097,4.237752 -2.627487,0 -4.759124,-1.88617 -4.759124,-4.237752 0,-2.19251 1.875372,-4.00013 4.27899,-4.210249 -0.4605,-0.0835 -0.939652,-0.131569 -1.434516,-0.131569 -4.390919,0 -7.854952,3.256859 -7.854952,7.135238 0,4.138581 3.465015,7.38464 7.784258,7.38464 4.394849,0 7.855937,-3.248019 7.855937,-7.38464 0,-1.432549 -0.473263,-2.78262 -1.287229,-3.89409 0.109968,0.33482 0.176733,0.705962 0.176733,1.10067"
     inkscape:connector-curvature="0" />
  <g
     transform="matrix(0.98186929,0,0,0.98186929,-5.3521695,-1.6554177)"
     id="g185">
    <g
       id="g187">
      <linearGradient
         gradientTransform="matrix(1,0,0,-1,-564,-925)"
         y2="-974.57031"
         x2="838.9209"
         y1="-974.57031"
         x1="573.17767"
         gradientUnits="userSpaceOnUse"
         id="linearGradient7436">
        <stop
           id="stop7430"
           style="stop-color:#3C5AA6"
           offset="0" />
        <stop
           id="stop7432"
           style="stop-color:#2B73B9"
           offset="0.9331" />
        <stop
           id="stop7434"
           style="stop-color:#2A75BB"
           offset="1" />
      </linearGradient>
      <path
         style="fill:url(#SVGID_9_)"
         id="path196"
         d="m 254.02,30.598 -1.986,8.185 -1.834,-9.063 -24.559,-5.406 0.172,13.656 3.701,0.83 -0.267,2.463 c -0.048,-0.019 -0.078,-0.048 -0.104,-0.069 -4.588,-2.421 -10.276,-2.669 -15.629,-0.647 -1.796,0.687 -3.463,1.59 -4.975,2.688 l -3.705,-23.388 h -16.333 l -0.45,2.689 H 170.86 l -1.963,12.023 -1.426,-1.761 c -4.166,-5.118 -10.205,-7.937 -16.895,-8.077 l 14.596,-7.845 -10.178,-15.189 -18.389,21.189 3.174,3.87 c -2.875,1.175 -5.387,2.795 -7.468,4.752 l -15.767,-13.989 -5.513,10.566 0.212,-10.154 -24.651,7.875 0.632,13.244 4.194,-1.088 0.62,6.712 c -4.792,-2.152 -10.552,-2.099 -15.894,0.158 -1.583,0.69 -3.059,1.538 -4.419,2.524 0.924,-4.089 0.705,-8.12 -0.853,-11.715 -1.84,-4.248 -5.078,-7.759 -9.048,-9.974 -2.783,-1.854 -6.1,-3.009 -9.571,-3.402 -8.53,-1.491 -18.773,0.04 -28.854,4.335 -3.706,1.581 -7.163,3.375 -10.281,5.361 l -3.941,2.499 2.38,4.019 7.386,12.483 c 0,0 2.26,3.825 2.275,3.823 l 3.994,-1.963 0.557,-0.256 18.353,40.961 1.77,3.937 4.098,-1.32 9.93,-3.181 4.352,-1.383 -1.148,-4.43 -5.274,-20.245 c 1.517,-1.123 2.933,-2.314 4.24,-3.561 -0.295,2.419 -0.14,4.868 0.526,7.212 1.379,4.908 4.593,8.785 9.053,10.933 4.817,2.315 10.694,2.321 16.131,0.015 2.727,-1.157 5.152,-2.845 7.207,-4.854 l 0.749,8.063 17.39,-2.561 -0.027,-15.593 36.337,17.959 V 67.119 c 1.458,-0.122 2.946,-0.352 4.442,-0.719 4.002,-0.967 7.427,-2.293 10.47,-4.116 l -1.526,9.339 19.592,3.083 1.075,-7.05 5.117,9.453 3.128,-6.027 1.143,9.896 22.213,3.916 -1.178,-7.473 c 3.041,0.344 6.246,-0.064 9.342,-1.232 0.733,-0.271 1.457,-0.601 2.15,-0.955 l -0.885,7.951 14.784,2.086 0.11,6.063 15.416,4.839 20.071,-60.495 z m -86.793,8.99 1.019,-1.083 -1.231,7.627 -3.211,-2.892 z m -13.018,-31.156 5.382,7.311 -15.387,7.628 -1.063,-1.615 z M 52.32,64.809 58.459,88.364 48.523,91.538 28.134,46.004 c -1.109,0.583 -3.157,1.561 -5.038,2.483 L 15.713,36.015 c 2.936,-1.875 6.156,-3.537 9.581,-4.984 9.612,-4.088 18.783,-5.308 26.118,-4.012 2.595,0.292 5.342,1.057 7.748,2.654 3.301,1.859 5.826,4.505 7.282,7.875 3.551,8.206 -2.381,20.015 -14.122,27.261 z m 45.681,-4.192 c -0.114,3.507 -1.402,7.021 -3.558,9.994 -2.051,2.875 -4.916,5.248 -8.287,6.699 -8.62,3.652 -17.24,0 -19.543,-8.184 -2.231,-7.913 2.96,-17.333 11.312,-20.931 5.334,-2.252 10.686,-1.718 14.52,0.887 2.368,1.606 4.174,4.021 5.017,7.047 0.106,0.321 0.176,0.658 0.247,0.988 0.241,1.153 0.338,2.335 0.292,3.5 z m 46.901,16.653 -36.055,-18.033 0.064,18.894 -9.327,1.272 -0.65,-7.788 c 2.88,-4.938 3.933,-10.757 2.43,-16.093 -0.825,-2.933 -2.349,-5.479 -4.42,-7.519 l -1.338,-15.879 -4.188,1.086 -0.185,-4.015 14.978,-4.46 0.918,15.448 11.034,-15.503 10.787,10.273 -15.085,15.892 14.172,5.606 c 1.583,3 3.998,5.549 7.028,7.427 2.929,1.808 6.285,2.877 9.835,3.228 z m -18.721,-26.126 -5.015,-1.935 4.675,-4.544 c -0.2,2.086 -0.097,4.267 0.34,6.479 z m 39.237,4.724 c -3.46,2.862 -7.404,4.728 -12.615,5.987 -1.139,0.261 -2.255,0.451 -3.347,0.547 -8.271,0.813 -15.21,-2.985 -17.843,-9.145 -0.328,-0.746 -0.581,-1.501 -0.772,-2.307 -1.218,-5.188 -0.178,-9.825 2.385,-13.458 0.738,-1.06 1.614,-2.026 2.598,-2.896 2.414,-2.154 5.496,-3.72 9,-4.562 7.879,-1.9 14.818,0.505 19.072,5.725 L 148.882,51.74 c 1.018,0.192 2.637,-0.075 3.832,-0.361 3.576,-0.872 5.577,-2.77 7.34,-4.838 l 6,5.398 1.818,1.642 c -0.788,0.815 -1.616,1.584 -2.454,2.287 z m 31.853,21.327 -3.266,-21.635 -4.619,11.935 -6.916,-14.917 h -0.078 l -2.733,17.275 -11.527,-2.006 1.621,-9.64 c 0.435,-0.409 0.863,-0.819 1.284,-1.252 l 3.736,-3.847 -3.631,-3.252 L 175,26.899 h 11.63 l 2.911,15.892 3.262,-18.417 h 8.319 l 3.452,22.438 c -4.393,5.004 -6.527,11.731 -5.059,17.885 1.135,4.771 4.067,8.613 8.27,10.857 0.423,0.213 0.861,0.424 1.313,0.606 l 0.44,2.909 z m 28.725,-7.049 c -1.271,0.905 -2.67,1.674 -4.174,2.229 -2.969,1.131 -5.922,1.366 -8.553,0.843 -1.834,-0.362 -3.506,-1.077 -4.961,-2.112 -2.314,-1.674 -4.018,-4.146 -4.769,-7.25 -0.876,-3.729 -0.069,-7.711 1.937,-11.199 1,-1.705 2.283,-3.307 3.801,-4.688 1.693,-1.518 3.656,-2.761 5.84,-3.601 5.083,-1.896 10.096,-1.242 13.625,1.295 1.298,0.92 2.375,2.091 3.224,3.452 0.644,1.075 1.144,2.26 1.447,3.554 1.081,4.478 -0.206,9.274 -3.031,13.138 -1.21,1.647 -2.685,3.127 -4.386,4.339 z m 25.955,20.392 -8.524,-2.539 -0.743,-31.426 -4.287,24.243 -9.299,-1.484 0.666,-6.98 c 6.072,-5.131 9.291,-13.225 7.527,-20.56 -0.775,-3.248 -2.445,-6.076 -4.799,-8.226 l 0.785,-8.232 -3.516,-0.936 0.235,-4.395 16.021,3.22 5.387,25.546 5.525,-22.903 12.188,2.693 z"
         inkscape:connector-curvature="0" />
    </g>
  </g>
  <g
     transform="matrix(0.92240688,0,0,0.92240688,14.525161,6.3142123)"
     style="font-style:normal;font-variant:normal;font-weight:normal;font-stretch:normal;font-size:4px;line-height:125%;font-family:Arial;-inkscape-font-specification:Arial;letter-spacing:0px;word-spacing:0px;fill:#000000;fill-opacity:1;stroke:none"
     id="flowRoot3115" />
</svg>
